:FULLY-SPECIFIED
:FORCE-ALL-JOINTS-BE-3DOF
:DEGREES
162
root 8.25945 16.4209 -14.1158 7.53162 9.49728 -0.56668
lfemur -0.296486 8.19211 -13.287
ltibia 44.3868 0 0
lfoot 6.78019 6.91279 0
ltoes -14.7388 0 0
rfemur -31.8465 1.31692 23.4897
rtibia 35.7159 0 0
rfoot -11.1001 -0.155623 0
rtoes -11.5882 0 0
lowerback -5.15143 -2.29277 -0.688012
upperback -1.75571 -3.07878 3.46167
thorax 1.31992 -1.53431 3.73339
lowerneck -18.8494 -6.68161 -14.8317
upperneck 15.3588 -8.03911 14.6821
head 9.16661 -3.22115 6.44966
lclavicle 5.13205e-14 -1.35048e-14 0
lhumerus -41.555 -1.0936 90.6684
lradius 19.1448 0 0
lwrist -7.25869 0 0
lhand -5.49976 -19.4437 0
lfingers 7.12502 0 0
lthumb 20.31 9.4708 0
rclavicle 5.13205e-14 -1.35048e-14 0
rhumerus -45.3813 6.25207 -80.6665
rradius 32.1573 0 0
rwrist -17.9052 0 0
rhand -30.1354 -26.7843 0
rfingers 7.12502 0 0
rthumb -3.4481 -56.733 0
163
root 8.24617 16.4334 -13.9909 7.53343 9.39101 -0.644063
lfemur -1.63783 8.24101 -13.4818
ltibia 45.2923 0 0
lfoot 6.10965 7.13655 0
ltoes -14.4233 0 0
rfemur -31.3306 1.35179 23.7434
rtibia 35.6294 0 0
rfoot -11.3947 -0.0372916 0
rtoes -11.5945 0 0
lowerback -5.0727 -2.15298 -0.616522
upperback -1.77139 -2.89425 3.45769
thorax 1.24486 -1.44108 3.70019
lowerneck -18.6282 -6.70354 -14.886
upperneck 15.232 -8.09264 14.7724
head 9.10005 -3.25063 6.48287
lclavicle 4.9863e-14 -1.37568e-14 0
lhumerus -41.9124 -1.31756 90.8479
lradius 19.529 0 0
lwrist -6.4294 0 0
lhand -5.85239 -19.5332 0
lfingers 7.12502 0 0
lthumb 19.9704 9.40798 0
rclavicle 4.9863e-14 -1.37568e-14 0
rhumerus -45.1409 6.31586 -80.5127
rradius 32.6049 0 0
rwrist -18.0479 0 0
rhand -30.2481 -26.7831 0
rfingers 7.12502 0 0
rthumb -3.55691 -56.7294 0
164
root 8.23353 16.4459 -13.8677 7.53201 9.27452 -0.716469
lfemur -3.0303 8.28232 -13.7112
ltibia 46.1858 0 0
lfoot 5.36429 7.36211 0
ltoes -14.0742 0 0
rfemur -30.8025 1.40359 23.9832
rtibia 35.5252 0 0
rfoot -11.728 0.0672574 0
rtoes -11.6156 0 0
lowerback -4.99387 -2.00722 -0.549832
upperback -1.78718 -2.70101 3.45126
thorax 1.16938 -1.3436 3.66732
lowerneck -18.3943 -6.7249 -14.9412
upperneck 15.1063 -8.14679 14.8625
head 9.03198 -3.28111 6.51626
lclavicle 4.81598e-14 -1.40044e-14 0
lhumerus -42.2731 -1.59428 91.0481
lradius 19.97 0 0
lwrist -5.5217 0 0
lhand -6.23553 -19.6351 0
lfingers 7.12502 0 0
lthumb 19.6015 9.33521 0
rclavicle 4.81598e-14 -1.40044e-14 0
rhumerus -44.889 6.38338 -80.3523
rradius 33.081 0 0
rwrist -18.1991 0 0
rhand -30.3669 -26.7757 0
rfingers 7.12502 0 0
rthumb -3.67167 -56.7195 0
165
root 8.22154 16.4585 -13.7462 7.5277 9.14838 -0.784429
lfemur -4.46778 8.31604 -13.9712
ltibia 47.0643 0 0
lfoot 4.55141 7.5891 0
ltoes -13.6956 0 0
rfemur -30.2623 1.47104 24.2101
rtibia 35.4029 0 0
rfoot -12.0957 0.159236 0
rtoes -11.6502 0 0
lowerback -4.91538 -1.85617 -0.487499
upperback -1.80298 -2.50006 3.44262
thorax 1.09388 -1.24236 3.63477
lowerneck -18.1494 -6.74564 -14.9971
upperneck 14.9819 -8.20132 14.9522
head 8.96267 -3.3124 6.54971
lclavicle 4.62328e-14 -1.42472e-14 0
lhumerus -42.636 -1.91895 91.2668
lradius 20.4619 0 0
lwrist -4.54429 0 0
lhand -6.64592 -19.7488 0
lfingers 7.12502 0 0
lthumb 19.2063 9.25293 0
rclavicle 4.62328e-14 -1.42472e-14 0
rhumerus -44.6269 6.45452 -80.1864
rradius 33.583 0 0
rwrist -18.3581 0 0
rhand -30.4911 -26.7628 0
rfingers 7.12502 0 0
rthumb -3.79161 -56.704 0
166
root 8.21019 16.4712 -13.6261 7.52084 9.01318 -0.848472
lfemur -5.94416 8.34213 -14.2582
ltibia 47.9246 0 0
lfoot 3.67833 7.8171 0
ltoes -13.2916 0 0
rfemur -29.7101 1.55283 24.4248
rtibia 35.2625 0 0
rfoot -12.4936 0.239856 0
rtoes -11.6968 0 0
lowerback -4.83764 -1.7005 -0.429079
upperback -1.8187 -2.29238 3.43202
thorax 1.01874 -1.13786 3.60253
lowerneck -17.8952 -6.7657 -15.0534
upperneck 14.8593 -8.25601 15.0412
head 8.89241 -3.34434 6.58312
lclavicle 4.41041e-14 -1.44849e-14 0
lhumerus -43.0004 -2.28677 91.5021
lradius 20.9989 0 0
lwrist -3.50587 0 0
lhand -7.0803 -19.8735 0
lfingers 7.12502 0 0
lthumb 18.788 9.16156 0
rclavicle 4.41041e-14 -1.44849e-14 0
rhumerus -44.3559 6.52917 -80.0164
rradius 34.1082 0 0
rwrist -18.5242 0 0
rhand -30.6199 -26.745 0
rfingers 7.12502 0 0
rthumb -3.91595 -56.6835 0
167
root 8.19947 16.4838 -13.5074 7.51177 8.86951 -0.90913
lfemur -7.45336 8.36059 -14.5683
ltibia 48.7634 0 0
lfoot 2.75234 8.04573 0
ltoes -12.8664 0 0
rfemur -29.1461 1.64766 24.6283
rtibia 35.1037 0 0
rfoot -12.9176 0.310329 0
rtoes -11.7541 0 0
lowerback -4.76108 -1.54088 -0.374128
upperback -1.83421 -2.07895 3.41971
thorax 0.944378 -1.03056 3.57059
lowerneck -17.633 -6.78505 -15.1099
upperneck 14.7384 -8.31061 15.1293
head 8.82148 -3.37673 6.61638
lclavicle 4.17956e-14 -1.47169e-14 0
lhumerus -43.3655 -2.69293 91.7518
lradius 21.5753 0 0
lwrist -2.41513 0 0
lhand -7.5354 -20.0085 0
lfingers 7.12502 0 0
lthumb 18.3498 9.06153 0
rclavicle 4.17956e-14 -1.47169e-14 0
rhumerus -44.0775 6.60722 -79.8436
rradius 34.6539 0 0
rwrist -18.6967 0 0
rhand -30.7524 -26.723 0
rfingers 7.12502 0 0
rthumb -4.0439 -56.6587 0
168
root 8.1894 16.4963 -13.3897 7.50085 8.71795 -0.966932
lfemur -8.98927 8.37139 -14.8977
ltibia 49.5777 0 0
lfoot 1.78075 8.2746 0
ltoes -12.4241 0 0
rfemur -28.5704 1.75424 24.8215
rtibia 34.9264 0 0
rfoot -13.3635 0.371868 0
rtoes -11.8208 0 0
lowerback -4.68612 -1.37799 -0.322204
upperback -1.84943 -1.86076 3.40593
thorax 0.871185 -0.920959 3.53895
lowerneck -17.3647 -6.80364 -15.1663
upperneck 14.6197 -8.36491 15.2163
head 8.75017 -3.4094 6.64939
lclavicle 3.93295e-14 -1.49428e-14 0
lhumerus -43.7302 -3.13263 92.0138
lradius 22.1853 0 0
lwrist -1.28075 0 0
lhand -8.00797 -20.1532 0
lfingers 7.12502 0 0
lthumb 17.8948 8.95328 0
rclavicle 3.93295e-14 -1.49428e-14 0
rhumerus -43.7931 6.68857 -79.6692
rradius 35.2175 0 0
rwrist -18.875 0 0
rhand -30.8878 -26.6974 0
rfingers 7.12502 0 0
rthumb -4.17468 -56.6303 0
169
root 8.17996 16.5087 -13.273 7.48841 8.5591 -1.02241
lfemur -10.5458 8.37452 -15.2427
ltibia 50.3644 0 0
lfoot 0.770848 8.50331 0
ltoes -11.9689 0 0
rfemur -27.9831 1.87126 25.0051
rtibia 34.7303 0 0
rfoot -13.8272 0.425685 0
rtoes -11.8955 0 0
lowerback -4.61318 -1.2125 -0.272863
upperback -1.86423 -1.63877 3.39094
thorax 0.79956 -0.809538 3.50758
lowerneck -17.0916 -6.82141 -15.2223
upperneck 14.5033 -8.41866 15.3018
head 8.67875 -3.44218 6.68203
lclavicle 3.67276e-14 -1.51622e-14 0
lhumerus -44.0938 -3.60106 92.2863
lradius 22.823 0 0
lwrist -0.111443 0 0
lhand -8.49473 -20.3069 0
lfingers 7.12502 0 0
lthumb 17.4261 8.83724 0
rclavicle 3.67276e-14 -1.51622e-14 0
rhumerus -43.5039 6.77311 -79.4945
rradius 35.7963 0 0
rwrist -19.0583 0 0
rhand -31.0254 -26.6689 0
rfingers 7.12502 0 0
rthumb -4.30752 -56.5989 0
170
root 8.17115 16.5209 -13.1571 7.4748 8.39353 -1.07609
lfemur -12.1168 8.36994 -15.5995
ltibia 51.1201 0 0
lfoot -0.270052 8.73146 0
ltoes -11.505 0 0
rfemur -27.3844 1.99742 25.18
rtibia 34.5152 0 0
rfoot -14.3043 0.472992 0
rtoes -11.9768 0 0
lowerback -4.54269 -1.04508 -0.225661
upperback -1.87853 -1.41399 3.37496
thorax 0.729903 -0.696782 3.47649
lowerneck -16.8154 -6.83833 -15.2777
upperneck 14.3896 -8.47165 15.3858
head 8.60752 -3.47489 6.71419
lclavicle 3.40119e-14 -1.53746e-14 0
lhumerus -44.4554 -4.09342 92.567
lradius 23.4828 0 0
lwrist 1.08411 0 0
lhand -8.99244 -20.4689 0
lfingers 7.12502 0 0
lthumb 16.9469 8.71383 0
rclavicle 3.40119e-14 -1.53746e-14 0
rhumerus -43.2114 6.86074 -79.3209
rradius 36.3875 0 0
rwrist -19.2459 0 0
rhand -31.1643 -26.6381 0
rfingers 7.12502 0 0
rthumb -4.44163 -56.5652 0
171
root 8.16297 16.5329 -13.0417 7.46036 8.22184 -1.1285
lfemur -13.6962 8.35765 -15.9643
ltibia 51.8419 0 0
lfoot -1.33465 8.95867 0
ltoes -11.0363 0 0
rfemur -26.7744 2.13143 25.3471
rtibia 34.281 0 0
rfoot -14.7908 0.515001 0
rtoes -12.0634 0 0
lowerback -4.47507 -0.876415 -0.180155
upperback -1.89221 -1.18739 3.35827
thorax 0.662612 -0.583173 3.44566
lowerneck -16.5377 -6.85433 -15.3322
upperneck 14.2786 -8.52363 15.4679
head 8.53676 -3.50734 6.74578
lclavicle 3.12046e-14 -1.55796e-14 0
lhumerus -44.8141 -4.6049 92.8539
lradius 24.1587 0 0
lwrist 2.29721 0 0
lhand -9.49781 -20.6384 0
lfingers 7.12502 0 0
lthumb 16.4603 8.5835 0
rclavicle 3.12046e-14 -1.55796e-14 0
rhumerus -42.917 6.95134 -79.1496
rradius 36.9885 0 0
rwrist -19.4372 0 0
rhand -31.3037 -26.6057 0
rfingers 7.12502 0 0
rthumb -4.57623 -56.5298 0
172
root 8.15541 16.5445 -12.9268 7.44543 8.04461 -1.18019
lfemur -15.2779 8.33763 -16.3332
ltibia 52.5266 0 0
lfoot -2.41565 9.18453 0
ltoes -10.5672 0 0
rfemur -26.1533 2.27199 25.5073
rtibia 34.0275 0 0
rfoot -15.2824 0.552923 0
rtoes -12.1538 0 0
lowerback -4.41075 -0.707167 -0.135902
upperback -1.90517 -0.959951 3.34109
thorax 0.598085 -0.469198 3.41508
lowerneck -16.26 -6.86939 -15.3856
upperneck 14.1708 -8.57437 15.548
head 8.46675 -3.53936 6.77668
lclavicle 2.83276e-14 -1.57768e-14 0
lhumerus -45.1691 -5.13069 93.1449
lradius 24.8451 0 0
lwrist 3.51917 0 0
lhand -10.0076 -20.8149 0
lfingers 7.12502 0 0
lthumb 15.9695 8.44666 0
rclavicle 2.83276e-14 -1.57768e-14 0
rhumerus -42.622 7.0448 -78.9819
rradius 37.5967 0 0
rwrist -19.6315 0 0
rhand -31.4428 -26.5723 0
rfingers 7.12502 0 0
rthumb -4.71055 -56.4935 0
173
root 8.14848 16.5558 -12.8121 7.43036 7.86243 -1.23166
lfemur -16.8559 8.30984 -16.7025
ltibia 53.171 0 0
lfoot -3.50574 9.40865 0
ltoes -10.1017 0 0
rfemur -25.5211 2.41779 25.6613
rtibia 33.7544 0 0
rfoot -15.775 0.587972 0
rtoes -12.2469 0 0
lowerback -4.35013 -0.538013 -0.0924572
upperback -1.9173 -0.73266 3.32368
thorax 0.536722 -0.35534 3.38474
lowerneck -15.984 -6.88344 -15.4375
upperneck 14.0662 -8.62365 15.6257
head 8.39777 -3.57076 6.80678
lclavicle 2.54029e-14 -1.59656e-14 0
lhumerus -45.5195 -5.66599 93.4381
lradius 25.5361 0 0
lwrist 4.74129 0 0
lhand -10.5185 -20.9976 0
lfingers 7.12502 0 0
lthumb 15.4775 8.30374 0
rclavicle 2.54029e-14 -1.59656e-14 0
rhumerus -42.3277 7.14103 -78.8191
rradius 38.2094 0 0
rwrist -19.8281 0 0
rhand -31.5808 -26.5386 0
rfingers 7.12502 0 0
rthumb -4.8438 -56.457 0
